<svg width="92" height="24" viewBox="0 0 92 24" fill="none" xmlns="http://www.w3.org/2000/svg">
<path d="M51.24 16.408C51.512 16.408 51.808 16.384 52.128 16.336C52.464 16.272 52.712 16.192 52.872 16.096V14.176L51.144 14.32C50.696 14.352 50.328 14.448 50.04 14.608C49.752 14.768 49.608 15.008 49.608 15.328C49.608 15.648 49.728 15.912 49.968 16.12C50.224 16.312 50.648 16.408 51.24 16.408ZM51.048 6.97601C51.912 6.97601 52.696 7.06401 53.4 7.24001C54.12 7.41601 54.728 7.68801 55.224 8.05601C55.736 8.40801 56.128 8.86401 56.4 9.42401C56.672 9.96801 56.808 10.616 56.808 11.368V16.744C56.808 17.16 56.688 17.504 56.448 17.776C56.224 18.032 55.952 18.256 55.632 18.448C54.592 19.072 53.128 19.384 51.24 19.384C50.392 19.384 49.624 19.304 48.936 19.144C48.264 18.984 47.68 18.744 47.184 18.424C46.704 18.104 46.328 17.696 46.056 17.2C45.8 16.704 45.672 16.128 45.672 15.472C45.672 14.368 46 13.52 46.656 12.928C47.312 12.336 48.328 11.968 49.704 11.824L52.848 11.488V11.32C52.848 10.856 52.64 10.528 52.224 10.336C51.824 10.128 51.24 10.024 50.472 10.024C49.864 10.024 49.272 10.088 48.696 10.216C48.12 10.344 47.6 10.504 47.136 10.696C46.928 10.552 46.752 10.336 46.608 10.048C46.464 9.74401 46.392 9.43201 46.392 9.11201C46.392 8.69601 46.488 8.36801 46.68 8.12801C46.888 7.87201 47.2 7.65601 47.616 7.48001C48.08 7.30401 48.624 7.17601 49.248 7.09601C49.888 7.01601 50.488 6.97601 51.048 6.97601Z" fill="white"/>
<path d="M63.3827 14.992C63.3827 15.408 63.5107 15.704 63.7667 15.88C64.0387 16.056 64.4147 16.144 64.8947 16.144C65.1347 16.144 65.3827 16.128 65.6387 16.096C65.8947 16.048 66.1187 15.992 66.3107 15.928C66.4547 16.104 66.5747 16.304 66.6707 16.528C66.7827 16.736 66.8387 16.992 66.8387 17.296C66.8387 17.904 66.6067 18.4 66.1427 18.784C65.6947 19.168 64.8947 19.36 63.7427 19.36C62.3347 19.36 61.2467 19.04 60.4787 18.4C59.7267 17.76 59.3507 16.72 59.3507 15.28V5.00801C59.5267 4.96001 59.7747 4.91201 60.0947 4.86401C60.4307 4.80001 60.7827 4.76801 61.1507 4.76801C61.8547 4.76801 62.3987 4.89601 62.7827 5.15201C63.1827 5.39201 63.3827 5.91201 63.3827 6.71201V8.24801H66.5267C66.6227 8.42401 66.7107 8.64801 66.7907 8.92001C66.8867 9.17601 66.9347 9.46401 66.9347 9.78401C66.9347 10.344 66.8067 10.752 66.5507 11.008C66.3107 11.248 65.9827 11.368 65.5667 11.368H63.3827V14.992Z" fill="white"/>
<path d="M78.7521 15.52C78.7521 16.736 78.2961 17.688 77.3841 18.376C76.4721 19.064 75.1281 19.408 73.3521 19.408C72.6801 19.408 72.0561 19.36 71.4801 19.264C70.9041 19.168 70.4081 19.024 69.9921 18.832C69.5921 18.624 69.2721 18.368 69.0321 18.064C68.8081 17.76 68.6961 17.4 68.6961 16.984C68.6961 16.6 68.7761 16.28 68.9361 16.024C69.0961 15.752 69.2881 15.528 69.5121 15.352C69.9761 15.608 70.5041 15.84 71.0961 16.048C71.7041 16.24 72.4001 16.336 73.1841 16.336C73.6801 16.336 74.0561 16.264 74.3121 16.12C74.5841 15.976 74.7201 15.784 74.7201 15.544C74.7201 15.32 74.6241 15.144 74.4321 15.016C74.2401 14.888 73.9201 14.784 73.4721 14.704L72.7521 14.56C71.3601 14.288 70.3201 13.864 69.6321 13.288C68.9601 12.696 68.6241 11.856 68.6241 10.768C68.6241 10.176 68.7521 9.64001 69.0081 9.16001C69.2641 8.68001 69.6241 8.28001 70.0881 7.96001C70.5521 7.64001 71.1041 7.39201 71.7441 7.21601C72.4001 7.04001 73.1201 6.95201 73.9041 6.95201C74.4961 6.95201 75.0481 7.00001 75.5601 7.09601C76.0881 7.17601 76.5441 7.30401 76.9281 7.48001C77.3121 7.65601 77.6161 7.88801 77.8401 8.17601C78.0641 8.44801 78.1761 8.77601 78.1761 9.16001C78.1761 9.52801 78.1041 9.84801 77.9601 10.12C77.8321 10.376 77.6641 10.592 77.4561 10.768C77.3281 10.688 77.1361 10.608 76.8801 10.528C76.6241 10.432 76.3441 10.352 76.0401 10.288C75.7361 10.208 75.4241 10.144 75.1041 10.096C74.8001 10.048 74.5201 10.024 74.2641 10.024C73.7361 10.024 73.3281 10.088 73.0401 10.216C72.7521 10.328 72.6081 10.512 72.6081 10.768C72.6081 10.944 72.6881 11.088 72.8481 11.2C73.0081 11.312 73.3121 11.416 73.7601 11.512L74.5041 11.68C76.0401 12.032 77.1281 12.52 77.7681 13.144C78.4241 13.752 78.7521 14.544 78.7521 15.52Z" fill="white"/>
<path d="M82.197 16.024C82.021 15.624 81.829 15.176 81.621 14.68C81.429 14.184 81.221 13.616 80.997 12.976C80.789 12.336 80.565 11.608 80.325 10.792C80.101 9.96001 79.861 9.00801 79.605 7.93601C79.829 7.71201 80.125 7.52001 80.493 7.36001C80.877 7.18401 81.293 7.09601 81.741 7.09601C82.301 7.09601 82.765 7.21601 83.133 7.45601C83.501 7.68001 83.773 8.11201 83.949 8.75201L85.845 15.352H85.941C86.133 14.808 86.317 14.216 86.493 13.576C86.685 12.936 86.869 12.28 87.045 11.608C87.221 10.92 87.381 10.24 87.525 9.56801C87.685 8.88001 87.821 8.20801 87.933 7.55201C88.509 7.24801 89.141 7.09601 89.829 7.09601C90.389 7.09601 90.853 7.21601 91.221 7.45601C91.589 7.69601 91.773 8.11201 91.773 8.70401C91.773 9.13601 91.717 9.64001 91.605 10.216C91.493 10.776 91.341 11.376 91.149 12.016C90.973 12.656 90.757 13.32 90.501 14.008C90.261 14.68 90.005 15.344 89.733 16C89.461 16.656 89.181 17.28 88.893 17.872C88.605 18.448 88.325 18.968 88.053 19.432C87.605 20.216 87.189 20.856 86.805 21.352C86.421 21.848 86.053 22.232 85.701 22.504C85.349 22.792 84.997 22.984 84.645 23.08C84.293 23.192 83.925 23.248 83.541 23.248C82.869 23.248 82.325 23.048 81.909 22.648C81.493 22.248 81.245 21.728 81.165 21.088C81.677 20.688 82.189 20.24 82.701 19.744C83.213 19.264 83.677 18.768 84.093 18.256C83.821 18.176 83.525 17.992 83.205 17.704C82.901 17.4 82.565 16.84 82.197 16.024Z" fill="white"/>
<path d="M30.3439 11.9785C30.4243 13.372 30.9327 14.3769 31.8761 15.0161C32.5817 15.4936 33.3699 15.45 34.1452 15.4482C36.539 15.4439 38.932 15.4465 41.3257 15.4343C42.5255 15.4282 43.0794 16.4445 42.9705 17.6293C42.9014 18.3845 42.4293 19.0786 41.8128 19.1205C40.7255 19.1956 39.6348 19.2104 38.5454 19.2148C35.8519 19.2253 33.1591 19.2052 30.4656 19.2174C29.0181 19.2235 27.6554 18.9127 26.351 18.0693C24.6422 16.9648 23.5208 15.271 22.7589 13.159C22.6607 12.8857 22.5752 12.76 22.3082 12.7862C20.3161 12.9782 18.3239 13.1581 16.3303 13.3187C15.3613 13.3973 14.388 13.4087 13.4189 13.4838C12.4157 13.5606 11.4146 13.6907 10.4114 13.7728C9.55561 13.8426 8.69693 13.8592 7.84182 13.9299C6.74819 14.0207 5.65527 14.1325 4.56377 14.253C3.19958 14.404 1.98491 14.0548 1.01588 12.7731C-0.733502 10.4593 -0.171738 6.69014 2.30246 5.29842C3.18748 4.80075 4.14441 4.96315 5.07713 5.00593C5.78201 5.03911 6.48475 5.13777 7.18821 5.20412C8.64781 5.34207 10.1067 5.49137 11.567 5.60837C12.5517 5.68695 13.54 5.69917 14.5247 5.77426C15.6169 5.85808 16.7069 5.99254 17.7991 6.08334C19.2894 6.20732 20.7803 6.30161 22.2698 6.43083C22.5418 6.45441 22.6507 6.35575 22.7611 6.05191C23.3535 4.42881 24.1324 2.96199 25.3357 1.91427C26.843 0.607235 28.5204 -0.0187803 30.378 0.000428054C33.3841 0.032733 36.3909 0.000428388 39.3977 0.0143982C40.2314 0.0178907 41.0737 0.0100328 41.8961 0.151476C42.6786 0.285934 43.0331 1.08832 42.9804 2.22946C42.9527 2.83278 42.3033 3.7862 41.6177 3.78009C39.7017 3.76263 37.7857 3.77573 35.8697 3.79406C34.8394 3.80367 33.8013 3.76263 32.7803 3.89796C31.3812 4.08306 30.539 5.34819 30.361 7.03415C30.3503 7.13805 30.5233 7.37379 30.6109 7.37379C31.3093 7.37553 32.0071 7.31354 32.7056 7.31267C33.3891 7.3118 34.0733 7.37815 34.7568 7.37815C35.4724 7.37815 36.1872 7.32751 36.9028 7.31703C37.2666 7.3118 37.6305 7.3572 37.9943 7.35982C38.7419 7.36505 39.4902 7.3345 40.2378 7.35982C40.8323 7.3799 41.4311 7.41831 42.0178 7.52745C42.6444 7.64445 42.8622 8.28181 42.9562 8.94013C43.021 9.39153 43.0082 9.8761 42.9548 10.3319C42.8288 11.4163 41.9416 12.0868 41.026 11.9157C40.5895 11.8336 40.1332 11.9043 39.686 11.9087C39.3364 11.9122 38.9861 11.9323 38.6372 11.9218C37.9409 11.9008 37.2446 11.8406 36.5489 11.8397C35.8825 11.8397 35.2161 11.9174 34.5496 11.9183C33.8526 11.9192 33.1548 11.8615 32.4578 11.8458C31.8312 11.8319 31.204 11.8371 30.5774 11.8476C30.4977 11.8493 30.4186 11.9331 30.3446 11.9768L30.3439 11.9785Z" fill="white"/>
</svg>
